<svg xmlns="http://www.w3.org/2000/svg" width="1200" height="350" viewBox="0 0 1200 350">
<defs>
<marker id="arr" markerWidth="9" markerHeight="8" refX="8" refY="4" orient="auto"><path d="M0,0 L9,4 L0,8 z" fill="#898781"/></marker>
<marker id="arrD" markerWidth="9" markerHeight="8" refX="8" refY="4" orient="auto"><path d="M0,0 L9,4 L0,8 z" fill="#52514e"/></marker>
<marker id="arrR" markerWidth="9" markerHeight="8" refX="8" refY="4" orient="auto"><path d="M0,0 L9,4 L0,8 z" fill="#d03b3b"/></marker>
<marker id="arrG" markerWidth="9" markerHeight="8" refX="8" refY="4" orient="auto"><path d="M0,0 L9,4 L0,8 z" fill="#0ca30c"/></marker>
</defs>
<rect width="1200" height="350" fill="#fcfcfb"/>
<g font-family="Segoe UI, DejaVu Sans, Arial, sans-serif"><text x="28" y="34" font-size="20" fill="#0b0b0b" font-weight="600">03 · Discovery — From Client Documents to a Graded Requirements Brief</text><text x="28" y="54" font-size="11.5" fill="#52514e">The BA is graded against 14 gaps deliberately planted in the inputs. The answer key is mechanically unreadable by every agent.</text><path d="M28,90 q0,-6 6,-6 h220 l14,14 v98 q0,6 -6,6 h-228 q-6,0 -6,-6 z" fill="#ffffff" stroke="#c3c2b7" stroke-width="1.2"/>
<path d="M254,84 l14,14 h-14 z" fill="#f0efec" stroke="#c3c2b7" stroke-width="1"/><text x="38" y="105" font-size="12" fill="#0b0b0b" font-weight="600">00-inputs/  (immutable)</text><text x="38" y="120" font-size="10" fill="#52514e">RFP DHS-2026-014</text><text x="38" y="132.6" font-size="10" fill="#52514e">Workshop notes (⚠ marks)</text><text x="38" y="145.2" font-size="10" fill="#52514e">Current-state process</text><text x="38" y="157.8" font-size="10" fill="#52514e">Personas P1–P8</text><text x="38" y="170.4" font-size="10" fill="#52514e">Annexure C compliance</text><text x="38" y="183" font-size="10" fill="#52514e">— hooks block all writes —</text><rect x="330" y="100" width="250" height="86" rx="8" fill="#2a78d61A" stroke="#2a78d6" stroke-width="1.6"/><text x="342" y="121" font-size="14" fill="#0b0b0b" font-weight="600">ba-analyst</text><text x="342" y="137" font-size="10.3" fill="#52514e">Reads everything. Separates client</text><text x="342" y="149.8" font-size="10.3" fill="#52514e">DECISIONS vs ASSUMPTIONS vs its own.</text><text x="342" y="162.6" font-size="10.3" fill="#52514e">Contradictions become questions,</text><text x="342" y="175.4" font-size="10.3" fill="#52514e">never silent choices.</text><rect x="532.4" y="107" width="39.6" height="16" rx="8" fill="#2a78d6"/><text x="552.2" y="118.5" font-size="9.5" fill="#fff" text-anchor="middle" font-weight="600">opus</text><path d="M268,143 L330,143" fill="none" stroke="#898781" stroke-width="1.6" marker-end="url(#arr)"/><rect x="264.2" y="127" width="69.6" height="14" rx="3" fill="#fcfcfb" opacity="0.92"/><text x="299" y="137" font-size="10.3" fill="#52514e" text-anchor="middle" font-weight="500">reads all 5</text><path d="M642,90 q0,-6 6,-6 h206 l14,14 v40 q0,6 -6,6 h-214 q-6,0 -6,-6 z" fill="#ffffff" stroke="#c3c2b7" stroke-width="1.2"/>
<path d="M854,84 l14,14 h-14 z" fill="#f0efec" stroke="#c3c2b7" stroke-width="1"/><text x="652" y="105" font-size="12" fill="#0b0b0b" font-weight="600">requirements-brief.md</text><text x="652" y="120" font-size="10" fill="#52514e">62 REQ-### · MoSCoW · source</text><text x="652" y="132.6" font-size="10" fill="#52514e">traceability to doc §</text><path d="M642,162 q0,-6 6,-6 h206 l14,14 v40 q0,6 -6,6 h-214 q-6,0 -6,-6 z" fill="#ffffff" stroke="#c3c2b7" stroke-width="1.2"/>
<path d="M854,156 l14,14 h-14 z" fill="#f0efec" stroke="#c3c2b7" stroke-width="1"/><text x="652" y="177" font-size="12" fill="#0b0b0b" font-weight="600">open-questions.md</text><text x="652" y="192" font-size="10" fill="#52514e">27 OQ-### · owner · severity ·</text><text x="652" y="204.6" font-size="10" fill="#52514e">suggested default (labeled)</text><path d="M580,120 L642,112" fill="none" stroke="#898781" stroke-width="1.6" marker-end="url(#arr)"/><path d="M580,165 L642,183" fill="none" stroke="#898781" stroke-width="1.6" marker-end="url(#arr)"/><path d="M330,238 q0,-6 6,-6 h230 l14,14 v36 q0,6 -6,6 h-238 q-6,0 -6,-6 z" fill="#ffffff" stroke="#c3c2b7" stroke-width="1.2"/>
<path d="M566,232 l14,14 h-14 z" fill="#f0efec" stroke="#c3c2b7" stroke-width="1"/><text x="340" y="253" font-size="12" fill="#0b0b0b" font-weight="600">ANSWER-KEY (root)</text><text x="340" y="268" font-size="10" fill="#52514e">14 planted gaps — read ONLY by the</text><text x="340" y="280.6" font-size="10" fill="#52514e">human grader. Result: 11 + 2p + 1 miss ✓</text><path d="M755,216 L755,260 L580,260" fill="none" stroke="#52514e" stroke-width="1.6" marker-end="url(#arrD)"/><rect x="610.3" y="244" width="114.39999999999999" height="14" rx="3" fill="#fcfcfb" opacity="0.92"/><text x="667.5" y="254" font-size="10.3" fill="#52514e" text-anchor="middle" font-weight="500">human grades vs key</text><path d="M455,232 L455,186" fill="none" stroke="#898781" stroke-width="1.6" stroke-dasharray="5,4" marker-end="url(#arr)"/><rect x="458" y="204" width="254.39999999999998" height="14" rx="3" fill="#fcfcfb" opacity="0.92"/><text x="462" y="214" font-size="10.3" fill="#52514e" text-anchor="start" font-weight="500">score &lt;10? tighten prompt, /ba-analyze again</text><rect x="920" y="100" width="246" height="86" rx="8" fill="#1baf7a1A" stroke="#1baf7a" stroke-width="1.6"/><text x="932" y="121" font-size="14" fill="#0b0b0b" font-weight="600">architect</text><text x="932" y="137" font-size="10.3" fill="#52514e">Turns the brief into technical-</text><text x="932" y="149.8" font-size="10.3" fill="#52514e">design.md: VS_ data model, ERD,</text><text x="932" y="162.6" font-size="10.3" fill="#52514e">§3.4 lock strategy, compliance</text><text x="932" y="175.4" font-size="10.3" fill="#52514e">mapping, epics EP-01..08.</text><rect x="1118.4" y="107" width="39.6" height="16" rx="8" fill="#1baf7a"/><text x="1138.2" y="118.5" font-size="9.5" fill="#0b0b0b" text-anchor="middle" font-weight="600">opus</text><path d="M868,143 L920,143" fill="none" stroke="#898781" stroke-width="1.6" marker-end="url(#arr)"/><rect x="836.8" y="127" width="114.39999999999999" height="14" rx="3" fill="#fcfcfb" opacity="0.92"/><text x="894" y="137" font-size="10.3" fill="#52514e" text-anchor="middle" font-weight="500">gate-approved brief</text><path d="M920,238 q0,-6 6,-6 h226 l14,14 v36 q0,6 -6,6 h-234 q-6,0 -6,-6 z" fill="#ffffff" stroke="#c3c2b7" stroke-width="1.2"/>
<path d="M1152,232 l14,14 h-14 z" fill="#f0efec" stroke="#c3c2b7" stroke-width="1"/><text x="930" y="253" font-size="12" fill="#0b0b0b" font-weight="600">01-discovery/ outputs</text><text x="930" y="268" font-size="10" fill="#52514e">technical-design.md (38 KB) ·</text><text x="930" y="280.6" font-size="10" fill="#52514e">erd/data-model.mermaid · EP-01..08</text><path d="M1043,186 L1043,232" fill="none" stroke="#898781" stroke-width="1.6" marker-end="url(#arr)"/><text x="28" y="330" font-size="11" fill="#52514e">Human gate answers close the open questions the BA refused to invent (capacity model, cut-off hours, walk-in %) — recorded as D-### decisions before design begins.</text></g>
</svg>